%
M48
M72
T01C0.0236
T02C0.0320
T03C0.0354
T04C0.0400
T05C0.0551
T06C0.1300
%
T01
X9180Y14680
X10180Y14680
X11180Y14680
T02
X11180Y8480
X9680Y8480
X9680Y4880
X11180Y4880
T03
X11180Y10280
X9680Y10280
X9680Y13080
X11180Y13080
T04
X7739Y11361
X7739Y10271
X7739Y9180
X7739Y8089
X7739Y6999
X6621Y7546
X6621Y8637
X6621Y9723
X6621Y10814
T05
X1680Y2180
X10680Y2180
X1680Y14180
T06
X7180Y14101
X7180Y4259
M30
