G75*
%MOIN*%
%OFA0B0*%
%FSLAX25Y25*%
%IPPOS*%
%LPD*%
%AMOC8*
5,1,8,0,0,1.08239X$1,22.5*
%
%ADD10C,0.00600*%
D10*
X0017100Y0067100D02*
X0017100Y0071370D01*
X0017100Y0073545D02*
X0017100Y0077816D01*
X0017100Y0079991D02*
X0023505Y0079991D01*
X0023505Y0083194D01*
X0022438Y0084261D01*
X0020303Y0084261D01*
X0019235Y0083194D01*
X0019235Y0079991D01*
X0020303Y0075681D02*
X0020303Y0073545D01*
X0023505Y0073545D02*
X0017100Y0073545D01*
X0020303Y0069235D02*
X0020303Y0067100D01*
X0023505Y0067100D02*
X0023505Y0071370D01*
X0023505Y0073545D02*
X0023505Y0077816D01*
X0021370Y0086436D02*
X0017100Y0086436D01*
X0019235Y0086436D02*
X0021370Y0088572D01*
X0021370Y0089639D01*
X0020303Y0091808D02*
X0018168Y0091808D01*
X0017100Y0092875D01*
X0017100Y0095010D01*
X0018168Y0096078D01*
X0020303Y0096078D01*
X0021370Y0095010D01*
X0021370Y0092875D01*
X0020303Y0091808D01*
X0021370Y0098253D02*
X0017100Y0098253D01*
X0017100Y0100388D02*
X0020303Y0100388D01*
X0021370Y0101456D01*
X0020303Y0102524D01*
X0017100Y0102524D01*
X0020303Y0100388D02*
X0021370Y0099321D01*
X0021370Y0098253D01*
X0019235Y0111144D02*
X0019235Y0114347D01*
X0020303Y0115415D01*
X0022438Y0115415D01*
X0023505Y0114347D01*
X0023505Y0111144D01*
X0017100Y0111144D01*
X0019235Y0113279D02*
X0017100Y0115415D01*
X0017100Y0117590D02*
X0023505Y0121860D01*
X0023505Y0124035D02*
X0017100Y0124035D01*
X0019235Y0126170D01*
X0017100Y0128306D01*
X0023505Y0128306D01*
X0023505Y0067100D02*
X0017100Y0067100D01*
M02*
