G75*
%MOIN*%
%OFA0B0*%
%FSLAX25Y25*%
%IPPOS*%
%LPD*%
%AMOC8*
5,1,8,0,0,1.08239X$1,22.5*
%
%ADD10C,0.00600*%
%ADD11C,0.00800*%
%ADD12C,0.00200*%
%ADD13C,0.00500*%
%ADD14R,0.02400X0.03400*%
%ADD15C,0.00100*%
D10*
X0019235Y0047100D02*
X0021370Y0049235D01*
X0021370Y0053505D01*
X0023545Y0051370D02*
X0025681Y0053505D01*
X0025681Y0047100D01*
X0027816Y0047100D02*
X0023545Y0047100D01*
X0019235Y0047100D02*
X0017100Y0049235D01*
X0017100Y0053505D01*
X0092300Y0055300D02*
X0092300Y0056800D01*
X0092800Y0057300D01*
X0092800Y0076300D01*
X0092300Y0076800D01*
X0092300Y0078300D01*
X0092302Y0078360D01*
X0092307Y0078421D01*
X0092316Y0078480D01*
X0092329Y0078539D01*
X0092345Y0078598D01*
X0092365Y0078655D01*
X0092388Y0078710D01*
X0092415Y0078765D01*
X0092444Y0078817D01*
X0092477Y0078868D01*
X0092513Y0078917D01*
X0092551Y0078963D01*
X0092593Y0079007D01*
X0092637Y0079049D01*
X0092683Y0079087D01*
X0092732Y0079123D01*
X0092783Y0079156D01*
X0092835Y0079185D01*
X0092890Y0079212D01*
X0092945Y0079235D01*
X0093002Y0079255D01*
X0093061Y0079271D01*
X0093120Y0079284D01*
X0093179Y0079293D01*
X0093240Y0079298D01*
X0093300Y0079300D01*
X0100300Y0079300D01*
X0100360Y0079298D01*
X0100421Y0079293D01*
X0100480Y0079284D01*
X0100539Y0079271D01*
X0100598Y0079255D01*
X0100655Y0079235D01*
X0100710Y0079212D01*
X0100765Y0079185D01*
X0100817Y0079156D01*
X0100868Y0079123D01*
X0100917Y0079087D01*
X0100963Y0079049D01*
X0101007Y0079007D01*
X0101049Y0078963D01*
X0101087Y0078917D01*
X0101123Y0078868D01*
X0101156Y0078817D01*
X0101185Y0078765D01*
X0101212Y0078710D01*
X0101235Y0078655D01*
X0101255Y0078598D01*
X0101271Y0078539D01*
X0101284Y0078480D01*
X0101293Y0078421D01*
X0101298Y0078360D01*
X0101300Y0078300D01*
X0101300Y0076800D01*
X0100800Y0076300D01*
X0100800Y0057300D01*
X0101300Y0056800D01*
X0101300Y0055300D01*
X0101298Y0055240D01*
X0101293Y0055179D01*
X0101284Y0055120D01*
X0101271Y0055061D01*
X0101255Y0055002D01*
X0101235Y0054945D01*
X0101212Y0054890D01*
X0101185Y0054835D01*
X0101156Y0054783D01*
X0101123Y0054732D01*
X0101087Y0054683D01*
X0101049Y0054637D01*
X0101007Y0054593D01*
X0100963Y0054551D01*
X0100917Y0054513D01*
X0100868Y0054477D01*
X0100817Y0054444D01*
X0100765Y0054415D01*
X0100710Y0054388D01*
X0100655Y0054365D01*
X0100598Y0054345D01*
X0100539Y0054329D01*
X0100480Y0054316D01*
X0100421Y0054307D01*
X0100360Y0054302D01*
X0100300Y0054300D01*
X0093300Y0054300D01*
X0093240Y0054302D01*
X0093179Y0054307D01*
X0093120Y0054316D01*
X0093061Y0054329D01*
X0093002Y0054345D01*
X0092945Y0054365D01*
X0092890Y0054388D01*
X0092835Y0054415D01*
X0092783Y0054444D01*
X0092732Y0054477D01*
X0092683Y0054513D01*
X0092637Y0054551D01*
X0092593Y0054593D01*
X0092551Y0054637D01*
X0092513Y0054683D01*
X0092477Y0054732D01*
X0092444Y0054783D01*
X0092415Y0054835D01*
X0092388Y0054890D01*
X0092365Y0054945D01*
X0092345Y0055002D01*
X0092329Y0055061D01*
X0092316Y0055120D01*
X0092307Y0055179D01*
X0092302Y0055240D01*
X0092300Y0055300D01*
X0107300Y0055300D02*
X0107300Y0056800D01*
X0107800Y0057300D01*
X0107800Y0076300D01*
X0107300Y0076800D01*
X0107300Y0078300D01*
X0107302Y0078360D01*
X0107307Y0078421D01*
X0107316Y0078480D01*
X0107329Y0078539D01*
X0107345Y0078598D01*
X0107365Y0078655D01*
X0107388Y0078710D01*
X0107415Y0078765D01*
X0107444Y0078817D01*
X0107477Y0078868D01*
X0107513Y0078917D01*
X0107551Y0078963D01*
X0107593Y0079007D01*
X0107637Y0079049D01*
X0107683Y0079087D01*
X0107732Y0079123D01*
X0107783Y0079156D01*
X0107835Y0079185D01*
X0107890Y0079212D01*
X0107945Y0079235D01*
X0108002Y0079255D01*
X0108061Y0079271D01*
X0108120Y0079284D01*
X0108179Y0079293D01*
X0108240Y0079298D01*
X0108300Y0079300D01*
X0115300Y0079300D01*
X0115360Y0079298D01*
X0115421Y0079293D01*
X0115480Y0079284D01*
X0115539Y0079271D01*
X0115598Y0079255D01*
X0115655Y0079235D01*
X0115710Y0079212D01*
X0115765Y0079185D01*
X0115817Y0079156D01*
X0115868Y0079123D01*
X0115917Y0079087D01*
X0115963Y0079049D01*
X0116007Y0079007D01*
X0116049Y0078963D01*
X0116087Y0078917D01*
X0116123Y0078868D01*
X0116156Y0078817D01*
X0116185Y0078765D01*
X0116212Y0078710D01*
X0116235Y0078655D01*
X0116255Y0078598D01*
X0116271Y0078539D01*
X0116284Y0078480D01*
X0116293Y0078421D01*
X0116298Y0078360D01*
X0116300Y0078300D01*
X0116300Y0076800D01*
X0115800Y0076300D01*
X0115800Y0057300D01*
X0116300Y0056800D01*
X0116300Y0055300D01*
X0116298Y0055240D01*
X0116293Y0055179D01*
X0116284Y0055120D01*
X0116271Y0055061D01*
X0116255Y0055002D01*
X0116235Y0054945D01*
X0116212Y0054890D01*
X0116185Y0054835D01*
X0116156Y0054783D01*
X0116123Y0054732D01*
X0116087Y0054683D01*
X0116049Y0054637D01*
X0116007Y0054593D01*
X0115963Y0054551D01*
X0115917Y0054513D01*
X0115868Y0054477D01*
X0115817Y0054444D01*
X0115765Y0054415D01*
X0115710Y0054388D01*
X0115655Y0054365D01*
X0115598Y0054345D01*
X0115539Y0054329D01*
X0115480Y0054316D01*
X0115421Y0054307D01*
X0115360Y0054302D01*
X0115300Y0054300D01*
X0108300Y0054300D01*
X0108240Y0054302D01*
X0108179Y0054307D01*
X0108120Y0054316D01*
X0108061Y0054329D01*
X0108002Y0054345D01*
X0107945Y0054365D01*
X0107890Y0054388D01*
X0107835Y0054415D01*
X0107783Y0054444D01*
X0107732Y0054477D01*
X0107683Y0054513D01*
X0107637Y0054551D01*
X0107593Y0054593D01*
X0107551Y0054637D01*
X0107513Y0054683D01*
X0107477Y0054732D01*
X0107444Y0054783D01*
X0107415Y0054835D01*
X0107388Y0054890D01*
X0107365Y0054945D01*
X0107345Y0055002D01*
X0107329Y0055061D01*
X0107316Y0055120D01*
X0107307Y0055179D01*
X0107302Y0055240D01*
X0107300Y0055300D01*
D11*
X0082824Y0031170D02*
X0082824Y0152430D01*
X0061800Y0152430D01*
X0093800Y0123800D02*
X0096800Y0123800D01*
X0096800Y0126800D01*
X0096800Y0123800D02*
X0099800Y0123800D01*
X0099800Y0109800D01*
X0096800Y0109800D01*
X0096800Y0106800D01*
X0096800Y0109800D02*
X0093800Y0109800D01*
X0093800Y0123800D01*
X0094300Y0111800D02*
X0099300Y0111800D01*
X0108800Y0109800D02*
X0108800Y0123800D01*
X0111800Y0123800D01*
X0111800Y0126800D01*
X0111800Y0123800D02*
X0114800Y0123800D01*
X0114800Y0109800D01*
X0111800Y0109800D01*
X0111800Y0106800D01*
X0111800Y0109800D02*
X0108800Y0109800D01*
X0109300Y0111800D02*
X0114300Y0111800D01*
X0082824Y0031170D02*
X0061800Y0031170D01*
D12*
X0061152Y0088770D02*
X0061385Y0089004D01*
X0061385Y0089237D01*
X0061152Y0089471D01*
X0059984Y0089471D01*
X0059984Y0089704D02*
X0059984Y0089237D01*
X0059984Y0090243D02*
X0059984Y0090944D01*
X0060217Y0091177D01*
X0060684Y0091177D01*
X0060918Y0090944D01*
X0060918Y0090243D01*
X0061385Y0090243D02*
X0059984Y0090243D01*
X0060451Y0091717D02*
X0059984Y0092184D01*
X0061385Y0092184D01*
X0061385Y0091717D02*
X0061385Y0092651D01*
D13*
X0086797Y0062656D02*
X0086046Y0061906D01*
X0086046Y0060405D01*
X0086797Y0059654D01*
X0086797Y0058053D02*
X0088298Y0058053D01*
X0089049Y0057302D01*
X0089049Y0055050D01*
X0090550Y0055050D02*
X0086046Y0055050D01*
X0086046Y0057302D01*
X0086797Y0058053D01*
X0089049Y0056551D02*
X0090550Y0058053D01*
X0090550Y0059654D02*
X0087547Y0062656D01*
X0086797Y0062656D01*
X0090550Y0062656D02*
X0090550Y0059654D01*
X0101046Y0061155D02*
X0105550Y0061155D01*
X0105550Y0059654D02*
X0105550Y0062656D01*
X0102547Y0059654D02*
X0101046Y0061155D01*
X0101797Y0058053D02*
X0101046Y0057302D01*
X0101046Y0055050D01*
X0105550Y0055050D01*
X0104049Y0055050D02*
X0104049Y0057302D01*
X0103298Y0058053D01*
X0101797Y0058053D01*
X0104049Y0056551D02*
X0105550Y0058053D01*
D14*
X0111800Y0052600D03*
X0096800Y0052600D03*
X0096800Y0081000D03*
X0111800Y0081000D03*
D15*
X0106750Y0106850D02*
X0106750Y0107851D01*
X0106750Y0108323D02*
X0106750Y0109324D01*
X0106750Y0108824D02*
X0105249Y0108824D01*
X0105749Y0108323D01*
X0105499Y0107851D02*
X0106500Y0106850D01*
X0106750Y0106850D01*
X0105249Y0106850D02*
X0105249Y0107851D01*
X0105499Y0107851D01*
X0098750Y0111600D02*
X0098500Y0111350D01*
X0098750Y0111600D02*
X0098750Y0112101D01*
X0098500Y0112351D01*
X0097999Y0112351D01*
X0097749Y0112101D01*
X0097749Y0111850D01*
X0097999Y0111350D01*
X0097249Y0111350D01*
X0097249Y0112351D01*
X0097749Y0113560D02*
X0097249Y0114060D01*
X0098750Y0114060D01*
X0098750Y0113560D02*
X0098750Y0114561D01*
X0098250Y0115033D02*
X0098750Y0115534D01*
X0098250Y0116034D01*
X0097249Y0116034D01*
X0097249Y0115033D02*
X0098250Y0115033D01*
X0098500Y0113073D02*
X0098750Y0113073D01*
X0098750Y0112823D01*
X0098500Y0112823D01*
X0098500Y0113073D01*
X0091750Y0109324D02*
X0091750Y0108323D01*
X0090749Y0109324D01*
X0090499Y0109324D01*
X0090249Y0109074D01*
X0090249Y0108573D01*
X0090499Y0108323D01*
X0090499Y0107851D02*
X0091500Y0106850D01*
X0091750Y0106850D01*
X0091750Y0107851D01*
X0090499Y0107851D02*
X0090249Y0107851D01*
X0090249Y0106850D01*
X0112249Y0111350D02*
X0112999Y0111350D01*
X0112749Y0111850D01*
X0112749Y0112101D01*
X0112999Y0112351D01*
X0113500Y0112351D01*
X0113750Y0112101D01*
X0113750Y0111600D01*
X0113500Y0111350D01*
X0112249Y0111350D02*
X0112249Y0112351D01*
X0112749Y0113560D02*
X0112249Y0114060D01*
X0113750Y0114060D01*
X0113750Y0113560D02*
X0113750Y0114561D01*
X0113250Y0115033D02*
X0113750Y0115534D01*
X0113250Y0116034D01*
X0112249Y0116034D01*
X0112249Y0115033D02*
X0113250Y0115033D01*
X0113500Y0113073D02*
X0113750Y0113073D01*
X0113750Y0112823D01*
X0113500Y0112823D01*
X0113500Y0113073D01*
M02*
